<?xml version="1.0" encoding="UTF-8"?><svg xmlns="http://www.w3.org/2000/svg" width="541" height="313" viewBox="-0.5 -0.5 541 313" ><style><![CDATA[.B{pointer-events:all}.C{fill:#b0b0b0}.D{stroke:#b0b0b0}.E{fill:#1ba1e2}.F{pointer-events:stroke}.G{fill:#e3c800}.H{font-family:Helvetica}.I{text-anchor:middle}.J{stroke-miterlimit:10}]]></style><g fill="none" class="D B"><path d="M0 31h60v40H0z"/><path d="M60 31h60v40H60z"/><path d="M120 31h60v40h-60z"/><path d="M180 31h60v40h-60zm0 120h60v40h-60z"/><path d="M240 151h60v40h-60z"/><path d="M300 151h60v40h-60z"/><path d="M360 151h60v40h-60z"/><path d="M420 151h60v40h-60z"/><path d="M480 151h60v40h-60zM0 271h60v40H0z"/><path d="M60 271h60v40H60z"/><path d="M120 271h60v40h-60z"/><path d="M180 271h60v40h-60z"/></g><circle cx="210" cy="171" r="15" class="B E"/><circle cx="210" cy="51" r="15" class="B G"/><circle cx="330" cy="171" r="15" class="B E"/><circle cx="390" cy="171" fill="#fff" stroke-dasharray="3 3" r="15" class="B D"/><g class="E B"><circle cx="450" cy="171" r="15"/><circle cx="510" cy="171" r="15"/></g><g class="G B"><circle cx="150" cy="51" r="15"/><circle cx="90" cy="51" r="15"/><circle cx="30" cy="51" r="15"/></g><circle cx="270" cy="171" r="15" class="B E"/><g fill="#60a917" class="B"><circle cx="30" cy="291" r="15"/><circle cx="90" cy="291" r="15"/><circle cx="150" cy="291" r="15"/></g><circle cx="385" cy="51" r="15" class="B G"/><g stroke-width="2" class="D J"><path d="M260 51h78.76" fill="none" class="F"/><path d="M344.76 51l-8 4 2-4-2-4z" class="B C"/><path d="M387 81v45.76" fill="none" class="F"/><path d="M387 132.76l-4-8 4 2 4-2z" class="B C"/><path d="M389.5 206v45.76" fill="none" class="F"/><path d="M389.5 257.76l-4-8 4 2 4-2z" class="B C"/></g><circle cx="388" cy="286" fill="#60a917" r="15" class="B"/><g stroke-width="2" class="D J"><path d="M353 293h-78.76" fill="none" class="F"/><path d="M268.24 293l8-4-2 4 2 4z" class="B C"/></g><text x="121.5" y="13.5" font-size="12" class="C H I">Task Queue</text><text x="128.5" y="257.5" font-size="12" class="C H I">Completed Tasks</text><text x="125.5" y="172.5" font-size="12" class="C H I">Thread Pool</text></svg>